/'
 ' Diagram generated by cwl2puml v0.47.0
 ' timestamp: 2026-08-28T13:27:50.583
 '/
@startuml
hide empty description





state "pattern-11" as pattern_11 {
    
    state "aoi" as pattern_11_aoi <<entryPoint>>
    
    state "epsg" as pattern_11_epsg <<entryPoint>>
    
    state "bands" as pattern_11_bands <<entryPoint>>
    
    state "item" as pattern_11_item <<entryPoint>>
    
    state "dem" as pattern_11_dem <<entryPoint>>
    

 

                
                
        
                
        
                
        
                
        
                
        
                
        

    state step {
        
        state "item" as step_item <<entryPoint>>
                
                        
        
        pattern_11_item --> step_item
                        
                
        
        state "aoi" as step_aoi <<entryPoint>>
                
                        
        
        pattern_11_aoi --> step_aoi
                        
                
        
        state "epsg" as step_epsg <<entryPoint>>
                
                        
        
        pattern_11_epsg --> step_epsg
                        
                
        
        state "band" as step_band <<entryPoint>>
                
                        
        
        pattern_11_bands --> step_band
                        
                
        
        state "dem" as step_dem <<entryPoint>>
                
                        
        
        pattern_11_dem --> step_dem
                        
                
        

        
        state "stac-catalog" as step_stac_catalog <<exitPoint>>
        

    }
        
    

        
state "water_bodies" as pattern_11_water_bodies <<exitPoint>>
                
step_stac_catalog --> pattern_11_water_bodies
                
        
}
        
[*] --> pattern_11_aoi
        
[*] --> pattern_11_epsg
        
[*] --> pattern_11_bands
        
[*] --> pattern_11_item
        
[*] --> pattern_11_dem
        

        
pattern_11_water_bodies --> [*]
        



@enduml