/'
 ' Diagram generated by cwl2puml v0.47.0
 ' timestamp: 2026-08-28T13:25:37.833
 '/
@startuml
hide empty description





state "pattern-1" as pattern_1 {
    
    state "aoi" as pattern_1_aoi <<entryPoint>>
    
    state "epsg" as pattern_1_epsg <<entryPoint>>
    
    state "bands" as pattern_1_bands <<entryPoint>>
    
    state "item" as pattern_1_item <<entryPoint>>
    

 

                
                
        
                
        
                
        
                
        
                
        

    state step {
        
        state "item" as step_item <<entryPoint>>
                
                        
        
        pattern_1_item --> step_item
                        
                
        
        state "aoi" as step_aoi <<entryPoint>>
                
                        
        
        pattern_1_aoi --> step_aoi
                        
                
        
        state "epsg" as step_epsg <<entryPoint>>
                
                        
        
        pattern_1_epsg --> step_epsg
                        
                
        
        state "band" as step_band <<entryPoint>>
                
                        
        
        pattern_1_bands --> step_band
                        
                
        

        
        state "stac-catalog" as step_stac_catalog <<exitPoint>>
        

    }
        
    

        
state "water_bodies" as pattern_1_water_bodies <<exitPoint>>
                
step_stac_catalog --> pattern_1_water_bodies
                
        
}
        
[*] --> pattern_1_aoi
        
[*] --> pattern_1_epsg
        
[*] --> pattern_1_bands
        
[*] --> pattern_1_item
        

        
pattern_1_water_bodies --> [*]
        



@enduml