/'
 ' Diagram generated by cwl2puml v0.47.0
 ' timestamp: 2026-08-28T13:28:11.780
 '/
@startuml
hide empty description





state "pattern-12" as pattern_12 {
    
    state "aoi" as pattern_12_aoi <<entryPoint>>
    
    state "bands" as pattern_12_bands <<entryPoint>>
    
    state "item" as pattern_12_item <<entryPoint>>
    
    state "cropped-collection" as pattern_12_cropped_collection <<entryPoint>>
    
    state "ndwi-collection" as pattern_12_ndwi_collection <<entryPoint>>
    
    state "water-bodies-collection" as pattern_12_water_bodies_collection <<entryPoint>>
    

 

                
                
        
                
        
                
        
                
        
                
        
                
        

    state node_crop {
        
        state "item" as node_crop_item <<entryPoint>>
                
                        
        
        pattern_12_item --> node_crop_item
                        
                
        
        state "aoi" as node_crop_aoi <<entryPoint>>
                
                        
        
        pattern_12_aoi --> node_crop_aoi
                        
                
        
        state "epsg" as node_crop_epsg <<entryPoint>>
                
                        
        
        pattern_12_aoi --> node_crop_epsg
                        
                
        
        state "band" as node_crop_band <<entryPoint>>
                
                        
        
        pattern_12_bands --> node_crop_band
                        
                
        
        state "collection" as node_crop_collection <<entryPoint>>
                
                        
        
        pattern_12_cropped_collection --> node_crop_collection
                        
                
        

        
        state "cropped" as node_crop_cropped <<exitPoint>>
        

    }
        
    
                
                
        
                
        
                
        
                
        

    state node_normalized_difference {
        
        state "rasters" as node_normalized_difference_rasters <<entryPoint>>
                
                        
        
        node_crop_cropped --> node_normalized_difference_rasters
                        
                
        
        state "item" as node_normalized_difference_item <<entryPoint>>
                
                        
        
        pattern_12_item --> node_normalized_difference_item
                        
                
        
        state "collection" as node_normalized_difference_collection <<entryPoint>>
                
                        
        
        pattern_12_ndwi_collection --> node_normalized_difference_collection
                        
                
        

        
        state "ndwi" as node_normalized_difference_ndwi <<exitPoint>>
        

    }
        
    
                
                
        
                
        
                
        
                
        

    state node_otsu {
        
        state "raster" as node_otsu_raster <<entryPoint>>
                
                        
        
        node_normalized_difference_ndwi --> node_otsu_raster
                        
                
        
        state "item" as node_otsu_item <<entryPoint>>
                
                        
        
        pattern_12_item --> node_otsu_item
                        
                
        
        state "collection" as node_otsu_collection <<entryPoint>>
                
                        
        
        pattern_12_water_bodies_collection --> node_otsu_collection
                        
                
        

        
        state "water_bodies" as node_otsu_water_bodies <<exitPoint>>
        

    }
        
    

        
state "cropped" as pattern_12_cropped <<exitPoint>>
                
node_crop_cropped --> pattern_12_cropped
                
        
state "ndwi" as pattern_12_ndwi <<exitPoint>>
                
node_normalized_difference_ndwi --> pattern_12_ndwi
                
        
state "water_bodies" as pattern_12_water_bodies <<exitPoint>>
                
node_otsu_water_bodies --> pattern_12_water_bodies
                
        
}
        
[*] --> pattern_12_aoi
        
[*] --> pattern_12_bands
        
[*] --> pattern_12_item
        
[*] --> pattern_12_cropped_collection
        
[*] --> pattern_12_ndwi_collection
        
[*] --> pattern_12_water_bodies_collection
        

        
pattern_12_cropped --> [*]
        
pattern_12_ndwi --> [*]
        
pattern_12_water_bodies --> [*]
        



@enduml