/'
 ' Diagram generated by cwl2puml v0.47.0
 ' timestamp: 2026-08-28T13:25:59.785
 '/
@startuml
hide empty description





state "pattern-3" as pattern_3 {
    
    state "aoi" as pattern_3_aoi <<entryPoint>>
    
    state "epsg" as pattern_3_epsg <<entryPoint>>
    
    state "bands" as pattern_3_bands <<entryPoint>>
    
    state "items" as pattern_3_items <<entryPoint>>
    

 

                
                
        
                
        
                
        
                
        
                
        

    state step {
        
        state "item" as step_item <<entryPoint>>
                
                        
        
        pattern_3_items --> step_item
                        
                
        
        state "aoi" as step_aoi <<entryPoint>>
                
                        
        
        pattern_3_aoi --> step_aoi
                        
                
        
        state "epsg" as step_epsg <<entryPoint>>
                
                        
        
        pattern_3_epsg --> step_epsg
                        
                
        
        state "band" as step_band <<entryPoint>>
                
                        
        
        pattern_3_bands --> step_band
                        
                
        

        
        state "stac-catalog" as step_stac_catalog <<exitPoint>>
        

    }
        
    

        
state "water_bodies" as pattern_3_water_bodies <<exitPoint>>
                
step_stac_catalog --> pattern_3_water_bodies
                
        
}
        
[*] --> pattern_3_aoi
        
[*] --> pattern_3_epsg
        
[*] --> pattern_3_bands
        
[*] --> pattern_3_items
        

        
pattern_3_water_bodies --> [*]
        



@enduml