/'
 ' Diagram generated by cwl2puml v0.47.0
 ' timestamp: 2026-08-28T13:27:02.456
 '/
@startuml
hide empty description





state "pattern-8" as pattern_8 {
    
    state "aoi" as pattern_8_aoi <<entryPoint>>
    
    state "epsg" as pattern_8_epsg <<entryPoint>>
    
    state "bands" as pattern_8_bands <<entryPoint>>
    
    state "item" as pattern_8_item <<entryPoint>>
    
    state "produce_output" as pattern_8_produce_output <<entryPoint>>
    

 

                
                
        
                
        
                
        
                
        
                
        
                
        

    state step {
        
        state "item" as step_item <<entryPoint>>
                
                        
        
        pattern_8_item --> step_item
                        
                
        
        state "aoi" as step_aoi <<entryPoint>>
                
                        
        
        pattern_8_aoi --> step_aoi
                        
                
        
        state "epsg" as step_epsg <<entryPoint>>
                
                        
        
        pattern_8_epsg --> step_epsg
                        
                
        
        state "band" as step_band <<entryPoint>>
                
                        
        
        pattern_8_bands --> step_band
                        
                
        
        state "produce_output" as step_produce_output <<entryPoint>>
                
                        
        
        pattern_8_produce_output --> step_produce_output
                        
                
        

        
        state "stac-catalog" as step_stac_catalog <<exitPoint>>
        

    }
        
    

        
state "water_bodies" as pattern_8_water_bodies <<exitPoint>>
                
step_stac_catalog --> pattern_8_water_bodies
                
        
}
        
[*] --> pattern_8_aoi
        
[*] --> pattern_8_epsg
        
[*] --> pattern_8_bands
        
[*] --> pattern_8_item
        
[*] --> pattern_8_produce_output
        

        
pattern_8_water_bodies --> [*]
        



@enduml