/'
 ' Diagram generated by cwl2puml v0.47.0
 ' timestamp: 2026-08-28T13:27:34.489
 '/
@startuml











    
        
            
        
            
        
    

    package "NDVI and NDWI vegetation indexes" {

    

    +class "pattern-10" as Workflow_pattern_10 extends Workflow {
        __ Inputs __
        
        + aoi: string = -118.985,38.432,-118.183,38.938
        
        + epsg: string = EPSG:4326
        
        + indexes: string[] = ['ndvi', 'ndwi']
        
        + items: Directory[]
        

        __ Outputs __
        
        + vegetation_indexes: Directory[]
        

        
        __ Steps __
            
        - subworkflow: vegetation_indexes
            
        - flatten: flatten_array
            
        
    }
    
        

        ' no need to add a Workflow_pattern_10 --> string
    
        

        ' no need to add a Workflow_pattern_10 --> string
    
        

        ' no need to add a Workflow_pattern_10 --> string
    
        

        ' no need to add a Workflow_pattern_10 --> Directory
    

    
    package "Steps" {
        
            

            
                
                    package "NDVI and NDWI vegetation indexes" {

    

    +class "vegetation_indexes" as Workflow_vegetation_indexes extends Workflow {
        __ Inputs __
        
        + aoi: string
        
        + epsg: string = EPSG:4326
        
        + indexes: string[] = ['ndvi', 'ndwi']
        
        + item: Directory
        

        __ Outputs __
        
        + vegetation_indexes: Directory[]
        

        
        __ Steps __
            
        - step: clt
            
        
    }
    
        

        ' no need to add a Workflow_vegetation_indexes --> string
    
        

        ' no need to add a Workflow_vegetation_indexes --> string
    
        

        ' no need to add a Workflow_vegetation_indexes --> string
    
        

        ' no need to add a Workflow_vegetation_indexes --> Directory
    

    
    package "Steps" {
        
            

            
                
                    

    +class "clt" as CommandLineTool_clt extends CommandLineTool {
        __ Inputs __
        
        + item: Directory
        
        + aoi: string
        
        + epsg: string
        
        + index: string
        

        __ Outputs __
        
        + vegetation_index: Directory
        

        
    }
    
        

        ' no need to add a CommandLineTool_clt --> Directory
    
        

        ' no need to add a CommandLineTool_clt --> string
    
        

        ' no need to add a CommandLineTool_clt --> string
    
        

        ' no need to add a CommandLineTool_clt --> string
    
                
Workflow_vegetation_indexes --> CommandLineTool_clt
            
        
    }
    

    
    package "Requirements" {
        
            
        class ScatterFeatureRequirement
        Workflow_vegetation_indexes --> ScatterFeatureRequirement
            
        
    }
    

    
}
                
Workflow_pattern_10 --> Workflow_vegetation_indexes
            
        
            

            
                
                    

    +class "flatten_array" as ExpressionTool_flatten_array extends ExpressionTool {
        __ Inputs __
        
        + nested: Directory[][]
        

        __ Outputs __
        
        + flat: Directory[]
        

        
    }
    
        

        ' no need to add a ExpressionTool_flatten_array --> Directory
    
                
Workflow_pattern_10 --> ExpressionTool_flatten_array
            
        
    }
    

    
    package "Requirements" {
        
            
        class SubworkflowFeatureRequirement
        Workflow_pattern_10 --> SubworkflowFeatureRequirement
            
        
            
        class ScatterFeatureRequirement
        Workflow_pattern_10 --> ScatterFeatureRequirement
            
        
    }
    

    
    package "Hints" {
        
            
        
    }
    
}
