/'
 ' Diagram generated by cwl2puml v0.47.0
 ' timestamp: 2026-08-28T13:27:37.651
 '/
@startuml
hide empty description





state "pattern-10" as pattern_10 {
    
    state "aoi" as pattern_10_aoi <<entryPoint>>
    
    state "epsg" as pattern_10_epsg <<entryPoint>>
    
    state "indexes" as pattern_10_indexes <<entryPoint>>
    
    state "items" as pattern_10_items <<entryPoint>>
    

 

                
                
state "pattern-10" as pattern_10 {
            
    
    state "aoi" as vegetation_indexes_aoi <<entryPoint>>
            
    
    state "epsg" as vegetation_indexes_epsg <<entryPoint>>
            
    
    state "indexes" as vegetation_indexes_indexes <<entryPoint>>
            
    
    state "item" as vegetation_indexes_item <<entryPoint>>
            
            
                
    pattern_10_items --> vegetation_indexes_item
                
        
                
    pattern_10_aoi --> vegetation_indexes_aoi
                
        
                
    pattern_10_epsg --> vegetation_indexes_epsg
                
        
                
    pattern_10_indexes --> vegetation_indexes_indexes
                
        

        
                
                
        
                
        
                
        
                
        
                
        

    state step {
        
        state "item" as step_item <<entryPoint>>
                
                        
        
        vegetation_indexes_item --> step_item
                        
                
        
        state "aoi" as step_aoi <<entryPoint>>
                
                        
        
        vegetation_indexes_aoi --> step_aoi
                        
                
        
        state "epsg" as step_epsg <<entryPoint>>
                
                        
        
        vegetation_indexes_epsg --> step_epsg
                        
                
        
        state "index" as step_index <<entryPoint>>
                
                        
        
        vegetation_indexes_indexes --> step_index
                        
                
        

        
        state "vegetation_index" as step_vegetation_index <<exitPoint>>
        

    }
        
    

        
state "vegetation_indexes" as subworkflow_vegetation_indexes <<exitPoint>>
                
step_vegetation_index --> subworkflow_vegetation_indexes
                
        

}

    
                
                
        
                
        

    state flatten {
        
        state "nested" as flatten_nested <<entryPoint>>
                
                        
        
        subworkflow_vegetation_indexes --> flatten_nested
                        
                
        

        
        state "flat" as flatten_flat <<exitPoint>>
        

    }
        
    

        
state "vegetation_indexes" as pattern_10_vegetation_indexes <<exitPoint>>
                
flatten_flat --> pattern_10_vegetation_indexes
                
        
}
        
[*] --> pattern_10_aoi
        
[*] --> pattern_10_epsg
        
[*] --> pattern_10_indexes
        
[*] --> pattern_10_items
        

        
pattern_10_vegetation_indexes --> [*]
        



@enduml