/'
 ' Diagram generated by cwl2puml v0.47.0
 ' timestamp: 2026-08-28T13:25:47.906
 '/
@startuml
hide empty description





state "pattern-2" as pattern_2 {
    
    state "aoi" as pattern_2_aoi <<entryPoint>>
    
    state "epsg" as pattern_2_epsg <<entryPoint>>
    
    state "bands" as pattern_2_bands <<entryPoint>>
    
    state "item_1" as pattern_2_item_1 <<entryPoint>>
    
    state "item_2" as pattern_2_item_2 <<entryPoint>>
    

 

                
                
        
                
        
                
        
                
        
                
        
                
        

    state step {
        
        state "item_1" as step_item_1 <<entryPoint>>
                
                        
        
        pattern_2_item_1 --> step_item_1
                        
                
        
        state "item_2" as step_item_2 <<entryPoint>>
                
                        
        
        pattern_2_item_2 --> step_item_2
                        
                
        
        state "aoi" as step_aoi <<entryPoint>>
                
                        
        
        pattern_2_aoi --> step_aoi
                        
                
        
        state "epsg" as step_epsg <<entryPoint>>
                
                        
        
        pattern_2_epsg --> step_epsg
                        
                
        
        state "band" as step_band <<entryPoint>>
                
                        
        
        pattern_2_bands --> step_band
                        
                
        

        
        state "stac-catalog" as step_stac_catalog <<exitPoint>>
        

    }
        
    

        
state "water_bodies" as pattern_2_water_bodies <<exitPoint>>
                
step_stac_catalog --> pattern_2_water_bodies
                
        
}
        
[*] --> pattern_2_aoi
        
[*] --> pattern_2_epsg
        
[*] --> pattern_2_bands
        
[*] --> pattern_2_item_1
        
[*] --> pattern_2_item_2
        

        
pattern_2_water_bodies --> [*]
        



@enduml