/'
 ' Diagram generated by cwl2puml v0.47.0
 ' timestamp: 2026-08-28T13:27:15.053
 '/
@startuml
hide empty description





state "pattern-9" as pattern_9 {
    
    state "aoi" as pattern_9_aoi <<entryPoint>>
    
    state "epsg" as pattern_9_epsg <<entryPoint>>
    
    state "indexes" as pattern_9_indexes <<entryPoint>>
    
    state "item" as pattern_9_item <<entryPoint>>
    

 

                
                
        
                
        
                
        
                
        
                
        

    state step {
        
        state "item" as step_item <<entryPoint>>
                
                        
        
        pattern_9_item --> step_item
                        
                
        
        state "aoi" as step_aoi <<entryPoint>>
                
                        
        
        pattern_9_aoi --> step_aoi
                        
                
        
        state "epsg" as step_epsg <<entryPoint>>
                
                        
        
        pattern_9_epsg --> step_epsg
                        
                
        
        state "index" as step_index <<entryPoint>>
                
                        
        
        pattern_9_indexes --> step_index
                        
                
        

        
        state "vegetation_index" as step_vegetation_index <<exitPoint>>
        

    }
        
    

        
state "vegetation_indexes" as pattern_9_vegetation_indexes <<exitPoint>>
                
step_vegetation_index --> pattern_9_vegetation_indexes
                
        
}
        
[*] --> pattern_9_aoi
        
[*] --> pattern_9_epsg
        
[*] --> pattern_9_indexes
        
[*] --> pattern_9_item
        

        
pattern_9_vegetation_indexes --> [*]
        



@enduml