/'
 ' Diagram generated by cwl2puml v0.47.0
 ' timestamp: 2026-08-28T13:26:12.176
 '/
@startuml
hide empty description





state "pattern-4" as pattern_4 {
    
    state "aoi" as pattern_4_aoi <<entryPoint>>
    
    state "epsg" as pattern_4_epsg <<entryPoint>>
    
    state "item" as pattern_4_item <<entryPoint>>
    

 

                
                
        
                
        
                
        
                
        

    state step {
        
        state "item" as step_item <<entryPoint>>
                
                        
        
        pattern_4_item --> step_item
                        
                
        
        state "aoi" as step_aoi <<entryPoint>>
                
                        
        
        pattern_4_aoi --> step_aoi
                        
                
        
        state "epsg" as step_epsg <<entryPoint>>
                
                        
        
        pattern_4_epsg --> step_epsg
                        
                
        

        
        state "ndvi" as step_ndvi <<exitPoint>>
        
        state "ndwi" as step_ndwi <<exitPoint>>
        

    }
        
    

        
state "ndvi" as pattern_4_ndvi <<exitPoint>>
                
step_ndvi --> pattern_4_ndvi
                
        
state "ndwi" as pattern_4_ndwi <<exitPoint>>
                
step_ndwi --> pattern_4_ndwi
                
        
}
        
[*] --> pattern_4_aoi
        
[*] --> pattern_4_epsg
        
[*] --> pattern_4_item
        

        
pattern_4_ndvi --> [*]
        
pattern_4_ndwi --> [*]
        



@enduml