/'
 ' Diagram generated by cwl2puml v0.47.0
 ' timestamp: 2026-08-28T13:26:25.676
 '/
@startuml
hide empty description





state "pattern-5" as pattern_5 {
    
    state "aoi" as pattern_5_aoi <<entryPoint>>
    
    state "epsg" as pattern_5_epsg <<entryPoint>>
    
    state "indexes" as pattern_5_indexes <<entryPoint>>
    
    state "item" as pattern_5_item <<entryPoint>>
    

 

                
                
        
                
        
                
        
                
        
                
        

    state step {
        
        state "item" as step_item <<entryPoint>>
                
                        
        
        pattern_5_item --> step_item
                        
                
        
        state "aoi" as step_aoi <<entryPoint>>
                
                        
        
        pattern_5_aoi --> step_aoi
                        
                
        
        state "epsg" as step_epsg <<entryPoint>>
                
                        
        
        pattern_5_epsg --> step_epsg
                        
                
        
        state "index" as step_index <<entryPoint>>
                
                        
        
        pattern_5_indexes --> step_index
                        
                
        

        
        state "vegetation_index" as step_vegetation_index <<exitPoint>>
        

    }
        
    

        
state "vegetation_indexes" as pattern_5_vegetation_indexes <<exitPoint>>
                
step_vegetation_index --> pattern_5_vegetation_indexes
                
        
}
        
[*] --> pattern_5_aoi
        
[*] --> pattern_5_epsg
        
[*] --> pattern_5_indexes
        
[*] --> pattern_5_item
        

        
pattern_5_vegetation_indexes --> [*]
        



@enduml