/'
 ' Diagram generated by cwl2puml v0.47.0
 ' timestamp: 2026-08-28T13:26:37.670
 '/
@startuml
hide empty description





state "pattern-6" as pattern_6 {
    
    state "aoi" as pattern_6_aoi <<entryPoint>>
    
    state "epsg" as pattern_6_epsg <<entryPoint>>
    
    state "item" as pattern_6_item <<entryPoint>>
    

 

                
                
        
                
        
                
        
                
        

    state step {
        
        state "item" as step_item <<entryPoint>>
                
                        
        
        pattern_6_item --> step_item
                        
                
        
        state "aoi" as step_aoi <<entryPoint>>
                
                        
        
        pattern_6_aoi --> step_aoi
                        
                
        
        state "epsg" as step_epsg <<entryPoint>>
                
                        
        
        pattern_6_epsg --> step_epsg
                        
                
        

        
        state "mean" as step_mean <<exitPoint>>
        

    }
        
    

        
state "mean" as pattern_6_mean <<exitPoint>>
                
step_mean --> pattern_6_mean
                
        
}
        
[*] --> pattern_6_aoi
        
[*] --> pattern_6_epsg
        
[*] --> pattern_6_item
        

        
pattern_6_mean --> [*]
        



@enduml