/'
 ' Diagram generated by cwl2puml v0.47.0
 ' timestamp: 2026-08-28T13:27:27.860
 '/
@startuml
hide empty description





state "vegetation_indexes" as vegetation_indexes {
    
    state "aoi" as vegetation_indexes_aoi <<entryPoint>>
    
    state "epsg" as vegetation_indexes_epsg <<entryPoint>>
    
    state "indexes" as vegetation_indexes_indexes <<entryPoint>>
    
    state "item" as vegetation_indexes_item <<entryPoint>>
    

 

                
                
        
                
        
                
        
                
        
                
        

    state step {
        
        state "item" as step_item <<entryPoint>>
                
                        
        
        vegetation_indexes_item --> step_item
                        
                
        
        state "aoi" as step_aoi <<entryPoint>>
                
                        
        
        vegetation_indexes_aoi --> step_aoi
                        
                
        
        state "epsg" as step_epsg <<entryPoint>>
                
                        
        
        vegetation_indexes_epsg --> step_epsg
                        
                
        
        state "index" as step_index <<entryPoint>>
                
                        
        
        vegetation_indexes_indexes --> step_index
                        
                
        

        
        state "vegetation_index" as step_vegetation_index <<exitPoint>>
        

    }
        
    

        
state "vegetation_indexes" as vegetation_indexes_vegetation_indexes <<exitPoint>>
                
step_vegetation_index --> vegetation_indexes_vegetation_indexes
                
        
}
        
[*] --> vegetation_indexes_aoi
        
[*] --> vegetation_indexes_epsg
        
[*] --> vegetation_indexes_indexes
        
[*] --> vegetation_indexes_item
        

        
vegetation_indexes_vegetation_indexes --> [*]
        



@enduml